# Blender v2.82 (sub 7) OBJ File: 'Prédio.blend'
# www.blender.org
mtllib estagio2.mtl
o 2°andar_Cube.002
v 1.393173 3.316693 1.432664
v 1.393173 4.273151 1.432664
v 1.160479 4.273151 1.432664
v 1.160479 3.316693 1.432664
v 1.058759 3.316693 1.432664
v 1.058759 4.273151 1.432664
v 0.826064 4.273151 1.432664
v 0.826064 3.316693 1.432664
v 0.279786 3.316693 1.432664
v 0.279786 4.273151 1.432664
v 0.047092 4.273151 1.432664
v 0.047092 3.316693 1.432664
v -0.054628 3.316693 1.432664
v -0.054628 4.273151 1.432664
v -0.287322 4.273151 1.432664
v -0.287322 3.316693 1.432664
v -0.818655 3.316693 1.432664
v -0.818655 4.273151 1.432664
v -1.051350 4.273151 1.432664
v -1.051350 3.316693 1.432664
v -1.153070 3.316693 1.432664
v -1.153070 4.273151 1.432664
v -1.385764 4.273151 1.432664
v -1.385764 3.316693 1.432664
v 1.608559 3.291334 -1.235412
v 1.608559 4.284480 -1.235412
v 1.608559 4.284480 -1.028580
v 1.608559 3.291334 -1.028580
v 1.608559 3.291334 -0.938166
v 1.608559 4.284480 -0.938166
v 1.608559 4.284480 -0.731335
v 1.608559 3.291334 -0.731335
v 1.608559 3.291334 0.254607
v 1.608559 4.284480 0.254607
v 1.608559 4.284480 0.047775
v 1.608559 3.291334 0.047775
v 1.608559 3.291334 -0.042639
v 1.608559 4.284480 -0.042639
v 1.608559 4.284480 -0.249470
v 1.608559 3.291334 -0.249470
v 1.608559 3.291334 0.731282
v 1.608559 4.284480 0.731282
v 1.608559 4.284480 0.938113
v 1.608559 3.291334 0.938113
v 1.608559 3.291334 1.028527
v 1.608559 4.284480 1.028527
v 1.608559 4.284480 1.235359
v 1.608559 3.291334 1.235359
v -1.608647 3.280098 1.237089
v -1.608647 4.273244 1.237089
v -1.608647 4.273244 1.030257
v -1.608647 3.280098 1.030257
v -1.608647 3.280098 -0.252930
v -1.608647 4.273244 -0.252930
v -1.608647 4.273244 -0.046098
v -1.608647 3.280098 -0.046098
v -1.608647 3.280098 0.044316
v -1.608647 4.273244 0.044316
v -1.608647 4.273244 0.251147
v -1.608647 3.280098 0.251147
v -1.608647 3.280098 1.237089
v -1.608647 3.280098 1.030257
v -1.608647 3.280098 0.939843
v -1.608647 4.273244 0.939843
v -1.608647 4.273244 0.733012
v -1.608647 3.280098 0.733012
v -1.608647 3.280098 -0.252930
v -1.608647 4.273244 -0.252930
v -1.608647 4.273244 -0.046098
v -1.608647 3.280098 -0.046098
v -1.608647 3.280098 -0.729605
v -1.608647 4.273244 -0.729605
v -1.608647 4.273244 -0.936437
v -1.608647 3.280098 -0.936437
v -1.608647 3.280098 -1.026851
v -1.608647 4.273244 -1.026851
v -1.608646 4.273244 -1.233682
v -1.608646 3.280098 -1.233682
v -1.397091 3.316693 -1.453200
v -1.397091 4.273151 -1.453200
v -1.164397 4.273151 -1.453200
v -1.164397 3.316693 -1.453200
v -1.062677 3.316693 -1.453200
v -1.062677 4.273151 -1.453200
v -0.829983 4.273151 -1.453200
v -0.829983 3.316693 -1.453200
v -0.283705 3.316693 -1.453200
v -0.283705 4.273151 -1.453200
v -0.051010 4.273151 -1.453200
v -0.051010 3.316693 -1.453200
v 0.050709 3.316693 -1.453200
v 0.050709 4.273151 -1.453200
v 0.283404 4.273151 -1.453200
v 0.283404 3.316693 -1.453200
v 0.814737 3.316693 -1.453200
v 0.814737 4.273151 -1.453200
v 1.047431 4.273151 -1.453200
v 1.047431 3.316693 -1.453200
v 1.149151 3.316693 -1.453200
v 1.149151 4.273151 -1.453200
v 1.381846 4.273151 -1.453200
v 1.381846 3.316693 -1.453200
v -0.818655 3.794922 1.432664
v -1.051350 3.794922 1.432664
v -1.153070 3.794922 1.432664
v -1.385764 3.794922 1.432664
v 0.279786 3.794922 1.432664
v 0.047092 3.794922 1.432664
v -0.054628 3.794922 1.432664
v -0.287322 3.794922 1.432664
v 1.393173 3.794922 1.432664
v 1.160479 3.794922 1.432664
v 1.058759 3.794922 1.432664
v 0.826064 3.794922 1.432664
v 1.608559 3.787907 -1.235412
v 1.608559 3.787907 -1.028580
v 1.608559 3.787907 -0.938166
v 1.608559 3.787907 -0.731335
v 1.608559 3.787907 0.254607
v 1.608559 3.787907 0.047775
v 1.608559 3.787907 -0.042639
v 1.608559 3.787907 -0.249470
v 1.608559 3.787907 0.731282
v 1.608559 3.787907 0.938113
v 1.608559 3.787907 1.028527
v 1.608559 3.787907 1.235359
v 0.814737 3.794922 -1.453200
v 1.047431 3.794922 -1.453200
v 1.149151 3.794922 -1.453200
v 1.381846 3.794922 -1.453200
v -0.283705 3.794922 -1.453200
v -0.051010 3.794922 -1.453200
v 0.050709 3.794922 -1.453200
v 0.283404 3.794922 -1.453200
v -1.397091 3.807847 -1.453200
v -1.164397 3.807847 -1.453200
v -1.062677 3.807847 -1.453200
v -0.829983 3.807847 -1.453200
v -1.608647 3.776671 1.237089
v -1.608647 3.776671 1.030257
v -1.608647 3.776671 0.939843
v -1.608647 3.776671 0.733012
v -1.608647 3.776671 -0.252930
v -1.608647 3.776671 -0.046098
v -1.608647 3.776671 -0.729605
v -1.608647 3.776671 -0.936437
v -1.608647 3.776671 -1.026851
v -1.608646 3.776671 -1.233682
vt 0.398050 0.871169
vt 0.578280 0.853644
vt 0.398050 0.853644
vt 0.398050 0.896356
vt 0.578280 0.878831
vt 0.398050 0.878831
vt 0.398050 0.871169
vt 0.578280 0.853644
vt 0.398050 0.853644
vt 0.578280 0.871170
vt 0.578280 0.896356
vt 0.578280 0.871170
vt 0.488165 0.871169
vt 0.578280 0.853644
vt 0.488165 0.853644
vt 0.488165 0.896356
vt 0.578280 0.878831
vt 0.488165 0.878831
vt 0.488165 0.871169
vt 0.578280 0.853644
vt 0.488165 0.853644
vt 0.488165 0.896356
vt 0.578280 0.878831
vt 0.488165 0.878831
vt 0.488165 0.871169
vt 0.578280 0.853644
vt 0.488165 0.853644
vt 0.488165 0.896356
vt 0.578280 0.878831
vt 0.488165 0.878831
vt 0.488165 0.871169
vt 0.578280 0.853644
vt 0.488165 0.853644
vt 0.488165 0.896356
vt 0.578280 0.878831
vt 0.488165 0.878831
vt 0.488165 0.896356
vt 0.578280 0.878831
vt 0.488165 0.878831
vt 0.488165 0.871169
vt 0.578280 0.853644
vt 0.488165 0.853644
vt 0.488165 0.871169
vt 0.578280 0.853644
vt 0.488165 0.853644
vt 0.488165 0.896356
vt 0.578280 0.878831
vt 0.488165 0.878831
vt 0.488165 0.896356
vt 0.578280 0.878831
vt 0.488165 0.878831
vt 0.488165 0.896356
vt 0.578280 0.878831
vt 0.488165 0.878831
vt 0.488165 0.871169
vt 0.578280 0.853644
vt 0.488165 0.853644
vt 0.488165 0.896356
vt 0.578280 0.878831
vt 0.488165 0.878831
vt 0.490601 0.871169
vt 0.578280 0.853644
vt 0.490600 0.853644
vt 0.490601 0.896356
vt 0.578280 0.878831
vt 0.490601 0.878831
vt 0.488165 0.871169
vt 0.578280 0.853644
vt 0.488165 0.853644
vt 0.488165 0.896356
vt 0.578280 0.878831
vt 0.488165 0.878831
vt 0.488165 0.871169
vt 0.578280 0.853644
vt 0.488165 0.853644
vt 0.488165 0.896356
vt 0.578280 0.878831
vt 0.488165 0.878831
vt 0.398050 0.896356
vt 0.398050 0.878831
vt 0.398050 0.871169
vt 0.398050 0.853644
vt 0.398050 0.896356
vt 0.398050 0.878831
vt 0.398050 0.871169
vt 0.398050 0.853644
vt 0.398050 0.896356
vt 0.398050 0.878831
vt 0.398050 0.871169
vt 0.398050 0.853644
vt 0.398050 0.896356
vt 0.398050 0.878831
vt 0.398050 0.871169
vt 0.398050 0.853644
vt 0.398050 0.871169
vt 0.398050 0.853644
vt 0.398050 0.896356
vt 0.398050 0.878831
vt 0.398050 0.896356
vt 0.398050 0.878831
vt 0.398050 0.871169
vt 0.398050 0.853644
vt 0.398050 0.896356
vt 0.398050 0.878831
vt 0.398050 0.871169
vt 0.398050 0.853644
vt 0.398050 0.896356
vt 0.398050 0.878831
vt 0.398050 0.871169
vt 0.398050 0.853644
vt 0.398050 0.896356
vt 0.398050 0.878831
vt 0.398050 0.871169
vt 0.398050 0.853644
vt 0.398050 0.896356
vt 0.398050 0.878831
vt 0.398050 0.871169
vt 0.488165 0.853644
vt 0.398050 0.853644
vt 0.398050 0.896356
vt 0.398050 0.878831
vt 0.398050 0.896356
vt 0.398050 0.878831
vt 0.398050 0.871169
vt 0.398050 0.853644
vt 0.578280 0.871170
vt 0.578280 0.896356
vt 0.578280 0.871170
vt 0.578280 0.896356
vt 0.578280 0.871170
vt 0.578280 0.896356
vt 0.578280 0.871170
vt 0.578280 0.896356
vt 0.578280 0.896356
vt 0.578280 0.871170
vt 0.578280 0.871170
vt 0.578280 0.896356
vt 0.578280 0.896356
vt 0.578280 0.896356
vt 0.578280 0.871170
vt 0.578280 0.896356
vt 0.578280 0.871170
vt 0.578280 0.896356
vt 0.578280 0.871170
vt 0.578280 0.896356
vt 0.578280 0.871170
vt 0.578280 0.896356
vt 0.488165 0.871169
vn 1.0000 0.0000 0.0000
vn 0.0000 0.0000 -1.0000
vn -1.0000 0.0000 0.0000
vn 0.0000 0.0000 1.0000
usemtl Prédio
s off
f 52/1/1 50/2/1 49/3/1
f 53/4/1 55/5/1 56/6/1
f 57/7/1 59/8/1 60/9/1
f 52/1/1 51/10/1 50/2/1
f 53/4/1 54/11/1 55/5/1
f 57/7/1 58/12/1 59/8/1
usemtl Vidro
f 112/13/2 2/14/2 111/15/2
f 114/16/2 6/17/2 113/18/2
f 108/19/2 10/20/2 107/21/2
f 110/22/2 14/23/2 109/24/2
f 104/25/2 18/26/2 103/27/2
f 106/28/2 22/29/2 105/30/2
f 116/31/3 26/32/3 115/33/3
f 118/34/3 30/35/3 117/36/3
f 119/37/3 35/38/3 120/39/3
f 121/40/3 39/41/3 122/42/3
f 124/43/3 42/44/3 123/45/3
f 126/46/3 46/47/3 125/48/3
f 142/49/1 64/50/1 141/51/1
f 143/52/1 69/53/1 144/54/1
f 146/55/1 72/56/1 145/57/1
f 148/58/1 76/59/1 147/60/1
f 136/61/4 80/62/4 135/63/4
f 138/64/4 84/65/4 137/66/4
f 132/67/4 88/68/4 131/69/4
f 134/70/4 92/71/4 133/72/4
f 128/73/4 96/74/4 127/75/4
f 130/76/4 100/77/4 129/78/4
f 24/79/2 105/30/2 21/80/2
f 20/81/2 103/27/2 17/82/2
f 16/83/2 109/24/2 13/84/2
f 12/85/2 107/21/2 9/86/2
f 8/87/2 113/18/2 5/88/2
f 4/89/2 111/15/2 1/90/2
f 32/91/3 117/36/3 29/92/3
f 28/93/3 115/33/3 25/94/3
f 37/95/3 122/42/3 40/96/3
f 33/97/3 120/39/3 36/98/3
f 48/99/3 125/48/3 45/100/3
f 44/101/3 123/45/3 41/102/3
f 102/103/4 129/78/4 99/104/4
f 98/105/4 127/75/4 95/106/4
f 94/107/4 133/72/4 91/108/4
f 90/109/4 131/69/4 87/110/4
f 86/111/4 137/66/4 83/112/4
f 82/113/4 135/63/4 79/114/4
f 66/115/1 141/51/1 63/116/1
f 62/117/1 139/118/1 61/119/1
f 67/120/1 144/54/1 70/121/1
f 78/122/1 147/60/1 75/123/1
f 74/124/1 145/57/1 71/125/1
f 112/13/2 3/126/2 2/14/2
f 114/16/2 7/127/2 6/17/2
f 108/19/2 11/128/2 10/20/2
f 110/22/2 15/129/2 14/23/2
f 104/25/2 19/130/2 18/26/2
f 106/28/2 23/131/2 22/29/2
f 116/31/3 27/132/3 26/32/3
f 118/34/3 31/133/3 30/35/3
f 119/37/3 34/134/3 35/38/3
f 121/40/3 38/135/3 39/41/3
f 124/43/3 43/136/3 42/44/3
f 126/46/3 47/137/3 46/47/3
f 142/49/1 65/138/1 64/50/1
f 143/52/1 68/139/1 69/53/1
f 146/55/1 73/140/1 72/56/1
f 148/58/1 77/141/1 76/59/1
f 136/61/4 81/142/4 80/62/4
f 138/64/4 85/143/4 84/65/4
f 132/67/4 89/144/4 88/68/4
f 134/70/4 93/145/4 92/71/4
f 128/73/4 97/146/4 96/74/4
f 130/76/4 101/147/4 100/77/4
f 24/79/2 106/28/2 105/30/2
f 20/81/2 104/25/2 103/27/2
f 16/83/2 110/22/2 109/24/2
f 12/85/2 108/19/2 107/21/2
f 8/87/2 114/16/2 113/18/2
f 4/89/2 112/13/2 111/15/2
f 32/91/3 118/34/3 117/36/3
f 28/93/3 116/31/3 115/33/3
f 37/95/3 121/40/3 122/42/3
f 33/97/3 119/37/3 120/39/3
f 48/99/3 126/46/3 125/48/3
f 44/101/3 124/43/3 123/45/3
f 102/103/4 130/76/4 129/78/4
f 98/105/4 128/73/4 127/75/4
f 94/107/4 134/70/4 133/72/4
f 90/109/4 132/67/4 131/69/4
f 86/111/4 138/64/4 137/66/4
f 82/113/4 136/61/4 135/63/4
f 66/115/1 142/49/1 141/51/1
f 62/117/1 140/148/1 139/118/1
f 67/120/1 143/52/1 144/54/1
f 78/122/1 148/58/1 147/60/1
f 74/124/1 146/55/1 145/57/1
