# Blender v2.82 (sub 7) OBJ File: 'Prédio.blend'
# www.blender.org
mtllib estagio5.mtl
o 5°ANDAR_Cube.009
v -1.602036 9.076952 0.730000
v -1.602036 9.076952 0.935981
v -1.602036 9.076952 1.026024
v -1.602036 9.076952 1.232005
v 1.601948 9.078289 -1.024354
v 1.601948 9.078289 -1.230335
v 1.601948 9.078289 -0.248445
v 1.601948 9.078289 -0.042464
v -1.602036 9.076952 0.250115
v -1.602036 9.076952 0.044134
v -1.602036 9.076952 -0.045909
v -1.602036 9.076952 -0.251890
v -1.602036 9.076952 -1.228612
v -1.602036 9.076952 -1.022631
v -1.602036 9.076952 -0.932588
v -1.602036 9.076952 -0.726607
v 1.376167 9.085892 -1.447228
v 1.144429 9.085892 -1.447228
v 1.043127 9.085892 -1.447228
v 0.811389 9.085892 -1.447228
v 0.282239 9.085892 -1.447228
v 0.050501 9.085892 -1.447228
v -0.050801 9.085892 -1.447228
v -0.282539 9.085892 -1.447228
v -0.826572 9.085892 -1.447228
v -1.058310 9.085892 -1.447228
v -1.159612 9.085892 -1.447228
v -1.391350 9.085892 -1.447228
v 1.601948 9.078289 1.230282
v 1.601948 9.078289 1.024301
v 1.601948 9.078289 0.934258
v 1.601948 9.078289 0.728277
v 1.601948 9.078289 -0.248445
v 1.601948 9.078289 -0.042464
v 1.601948 9.078289 0.047579
v 1.601948 9.078289 0.253560
v 1.601948 9.078289 -0.728330
v 1.601948 9.078289 -0.934311
v 1.601948 9.078289 -1.024354
v 1.601948 9.078289 -1.230335
v 0.822670 9.085892 1.426776
v 1.054408 9.085892 1.426776
v 1.155710 9.085892 1.426776
v 1.387448 9.085892 1.426776
v -0.286142 9.085892 1.426776
v -0.054403 9.085892 1.426776
v 0.046898 9.085892 1.426776
v 0.278637 9.085892 1.426776
v -1.380070 9.085892 1.426776
v -1.148331 9.085892 1.426776
v -1.047029 9.085892 1.426776
v -0.815291 9.085892 1.426776
v 1.376167 8.601128 -1.447228
v 1.376167 9.570656 -1.447228
v 1.144429 9.570656 -1.447228
v 1.144429 8.601128 -1.447228
v 1.043127 8.601128 -1.447228
v 1.043127 9.570656 -1.447228
v 0.811389 9.570656 -1.447228
v 0.811389 8.601128 -1.447228
v 0.282239 8.601128 -1.447228
v 0.282239 9.570656 -1.447228
v 0.050501 9.570656 -1.447228
v 0.050501 8.601128 -1.447228
v -0.050801 8.601128 -1.447228
v -0.050801 9.570656 -1.447228
v -0.282539 9.570656 -1.447228
v -0.282539 8.601128 -1.447228
v -0.826572 8.601128 -1.447228
v -0.826572 9.570656 -1.447228
v -1.058310 9.570656 -1.447228
v -1.058310 8.601128 -1.447228
v -1.159612 8.601128 -1.447228
v -1.159612 9.570656 -1.447228
v -1.391350 9.570656 -1.447228
v -1.391350 8.601128 -1.447228
v -1.602036 8.573595 -1.228612
v -1.602036 9.580311 -1.228612
v -1.602036 9.580311 -1.022631
v -1.602036 8.573595 -1.022631
v -1.602036 8.573595 -0.932588
v -1.602036 9.580311 -0.932588
v -1.602036 9.580311 -0.726607
v -1.602036 8.573595 -0.726607
v -1.602036 8.573595 0.250115
v -1.602036 9.580311 0.250115
v -1.602036 9.580311 0.044134
v -1.602036 8.573595 0.044134
v -1.602036 8.573595 -0.045909
v -1.602036 9.580311 -0.045909
v -1.602036 9.580311 -0.251890
v -1.602036 8.573595 -0.251890
v -1.602036 8.573595 0.730000
v -1.602036 9.580311 0.730000
v -1.602036 9.580311 0.935981
v -1.602036 8.573595 0.935981
v -1.602036 8.573595 1.026024
v -1.602036 9.580311 1.026024
v -1.602036 9.580311 1.232005
v -1.602036 8.573595 1.232005
v 1.601948 8.574932 1.230282
v 1.601948 9.581648 1.230282
v 1.601948 9.581648 1.024301
v 1.601948 8.574932 1.024301
v 1.601948 8.574932 0.934258
v 1.601948 9.581648 0.934258
v 1.601948 9.581648 0.728277
v 1.601948 8.574932 0.728277
v 1.601948 8.574932 -0.248445
v 1.601948 9.581648 -0.248445
v 1.601948 9.581648 -0.042464
v 1.601948 8.574932 -0.042464
v 1.601948 8.574932 0.047579
v 1.601948 9.581648 0.047579
v 1.601948 9.581648 0.253560
v 1.601948 8.574932 0.253560
v 1.601948 8.574932 -0.728330
v 1.601948 9.581648 -0.728330
v 1.601948 9.581648 -0.934311
v 1.601948 8.574932 -0.934311
v 1.601948 8.574932 -1.024354
v 1.601948 9.581648 -1.024354
v 1.601948 9.581648 -1.230335
v 1.601948 8.574932 -1.230335
v -1.380070 8.601128 1.426776
v -1.380070 9.570656 1.426776
v -1.148331 9.570656 1.426776
v -1.148331 8.601128 1.426776
v -1.047029 8.601128 1.426776
v -1.047029 9.570656 1.426776
v -0.815291 9.570656 1.426776
v -0.815291 8.601128 1.426776
v -0.286142 8.601128 1.426776
v -0.286142 9.570656 1.426776
v -0.054403 9.570656 1.426776
v -0.054403 8.601128 1.426776
v 0.046898 8.601128 1.426776
v 0.046898 9.570656 1.426776
v 0.278637 9.570656 1.426776
v 0.278637 8.601128 1.426776
v 0.822670 8.601128 1.426776
v 0.822670 9.570656 1.426776
v 1.054408 9.570656 1.426776
v 1.054408 8.601128 1.426776
v 1.155710 8.601128 1.426776
v 1.155710 9.570656 1.426776
v 1.387448 9.570656 1.426776
v 1.387448 8.601128 1.426776
vt 0.398050 0.871169
vt 0.488165 0.853644
vt 0.398050 0.853644
vt 0.398050 0.896356
vt 0.488165 0.878831
vt 0.398050 0.878831
vt 0.398050 0.896356
vt 0.488165 0.878831
vt 0.398050 0.878831
vt 0.398050 0.871169
vt 0.488165 0.853644
vt 0.398050 0.853644
vt 0.398050 0.871169
vt 0.488165 0.853644
vt 0.398050 0.853644
vt 0.398050 0.896356
vt 0.488165 0.878831
vt 0.398050 0.878831
vt 0.398050 0.871169
vt 0.488165 0.853644
vt 0.398050 0.853644
vt 0.398050 0.896356
vt 0.488165 0.878831
vt 0.398050 0.878831
vt 0.398050 0.871169
vt 0.488165 0.853644
vt 0.398050 0.853644
vt 0.398050 0.896356
vt 0.488165 0.878831
vt 0.398050 0.878831
vt 0.398050 0.871169
vt 0.488165 0.853644
vt 0.398050 0.853644
vt 0.398050 0.896356
vt 0.488165 0.878831
vt 0.398050 0.878831
vt 0.398050 0.871169
vt 0.488165 0.853644
vt 0.398050 0.853644
vt 0.398050 0.896356
vt 0.488165 0.878831
vt 0.398050 0.878831
vt 0.398050 0.896356
vt 0.488165 0.878831
vt 0.398050 0.878831
vt 0.398050 0.871169
vt 0.488165 0.853644
vt 0.398050 0.853644
vt 0.398050 0.871169
vt 0.488165 0.853644
vt 0.398050 0.853644
vt 0.398050 0.896356
vt 0.488165 0.878831
vt 0.398050 0.878831
vt 0.398050 0.871169
vt 0.488165 0.853644
vt 0.398050 0.853644
vt 0.398050 0.896356
vt 0.488165 0.878831
vt 0.398050 0.878831
vt 0.398050 0.871169
vt 0.488165 0.853644
vt 0.398050 0.853644
vt 0.398050 0.896356
vt 0.488165 0.878831
vt 0.398050 0.878831
vt 0.398050 0.871169
vt 0.488165 0.853644
vt 0.398050 0.853644
vt 0.398050 0.896356
vt 0.488165 0.878831
vt 0.398050 0.878831
vt 0.488165 0.896356
vt 0.578280 0.878831
vt 0.488165 0.871169
vt 0.578280 0.853644
vt 0.488165 0.896356
vt 0.578280 0.878831
vt 0.488165 0.871169
vt 0.578280 0.853644
vt 0.488165 0.896356
vt 0.578280 0.878831
vt 0.488165 0.871169
vt 0.578280 0.853644
vt 0.488165 0.896356
vt 0.578280 0.878831
vt 0.488165 0.871169
vt 0.578280 0.853644
vt 0.488165 0.871169
vt 0.578280 0.853644
vt 0.488165 0.896356
vt 0.578280 0.878831
vt 0.488165 0.896356
vt 0.578280 0.878831
vt 0.488165 0.871169
vt 0.578280 0.853644
vt 0.488165 0.896356
vt 0.578280 0.878831
vt 0.488165 0.871169
vt 0.578280 0.853644
vt 0.488165 0.871169
vt 0.578280 0.853644
vt 0.488165 0.853644
vt 0.488165 0.896356
vt 0.578280 0.878831
vt 0.488165 0.896356
vt 0.578280 0.878831
vt 0.488165 0.871169
vt 0.578280 0.853644
vt 0.488165 0.853644
vt 0.488165 0.896356
vt 0.578280 0.878831
vt 0.488165 0.871169
vt 0.578280 0.853644
vt 0.488165 0.896356
vt 0.578280 0.878831
vt 0.488165 0.871169
vt 0.578280 0.853644
vt 0.488165 0.896356
vt 0.578280 0.878831
vt 0.488165 0.871169
vt 0.578280 0.853644
vt 0.488165 0.871169
vt 0.488165 0.871169
vt 0.578280 0.896356
vt 0.578280 0.871170
vt 0.578280 0.896356
vt 0.578280 0.871170
vt 0.578280 0.896356
vt 0.578280 0.871170
vt 0.578280 0.896356
vt 0.578280 0.871170
vt 0.578280 0.871170
vt 0.578280 0.896356
vt 0.578280 0.896356
vt 0.578280 0.871170
vt 0.578280 0.896356
vt 0.578280 0.871170
vt 0.578280 0.871170
vt 0.578280 0.896356
vt 0.578280 0.896356
vt 0.578280 0.871170
vt 0.578280 0.896356
vt 0.578280 0.871170
vt 0.578280 0.896356
vt 0.578280 0.871170
vt 0.578280 0.896356
vt 0.578280 0.871170
vn 1.0000 0.0000 0.0000
vn 0.0000 0.0000 1.0000
vn -1.0000 0.0000 0.0000
vn 0.0000 0.0000 -1.0000
usemtl Vidro
s off
f 97/1/1 4/2/1 100/3/1
f 93/4/1 2/5/1 96/6/1
f 92/7/1 11/8/1 89/9/1
f 88/10/1 9/11/1 85/12/1
f 81/13/1 16/14/1 84/15/1
f 77/16/1 14/17/1 80/18/1
f 57/19/2 20/20/2 60/21/2
f 53/22/2 18/23/2 56/24/2
f 65/25/2 24/26/2 68/27/2
f 61/28/2 22/29/2 64/30/2
f 73/31/2 28/32/2 76/33/2
f 69/34/2 26/35/2 72/36/2
f 105/37/3 32/38/3 108/39/3
f 101/40/3 30/41/3 104/42/3
f 116/43/3 35/44/3 113/45/3
f 112/46/3 33/47/3 109/48/3
f 121/49/3 40/50/3 124/51/3
f 117/52/3 38/53/3 120/54/3
f 145/55/4 44/56/4 148/57/4
f 141/58/4 42/59/4 144/60/4
f 137/61/4 48/62/4 140/63/4
f 133/64/4 46/65/4 136/66/4
f 129/67/4 52/68/4 132/69/4
f 125/70/4 50/71/4 128/72/4
f 17/73/2 55/74/2 18/23/2
f 19/75/2 59/76/2 20/20/2
f 21/77/2 63/78/2 22/29/2
f 23/79/2 67/80/2 24/26/2
f 25/81/2 71/82/2 26/35/2
f 27/83/2 75/84/2 28/32/2
f 13/85/1 79/86/1 14/17/1
f 15/87/1 83/88/1 16/14/1
f 10/89/1 86/90/1 9/11/1
f 12/91/1 90/92/1 11/8/1
f 1/93/1 95/94/1 2/5/1
f 3/95/1 99/96/1 4/2/1
f 29/97/3 103/98/3 30/41/3
f 31/99/3 107/100/3 32/38/3
f 34/101/3 110/102/3 7/103/3
f 36/104/3 114/105/3 35/44/3
f 37/106/3 119/107/3 38/53/3
f 5/108/3 123/109/3 6/110/3
f 49/111/4 127/112/4 50/71/4
f 51/113/4 131/114/4 52/68/4
f 45/115/4 135/116/4 46/65/4
f 47/117/4 139/118/4 48/62/4
f 41/119/4 143/120/4 42/59/4
f 43/121/4 147/122/4 44/56/4
f 97/1/1 3/95/1 4/2/1
f 93/4/1 1/93/1 2/5/1
f 92/7/1 12/91/1 11/8/1
f 88/10/1 10/89/1 9/11/1
f 81/13/1 15/87/1 16/14/1
f 77/16/1 13/85/1 14/17/1
f 57/19/2 19/75/2 20/20/2
f 53/22/2 17/73/2 18/23/2
f 65/25/2 23/79/2 24/26/2
f 61/28/2 21/77/2 22/29/2
f 73/31/2 27/83/2 28/32/2
f 69/34/2 25/81/2 26/35/2
f 105/37/3 31/99/3 32/38/3
f 101/40/3 29/97/3 30/41/3
f 116/43/3 36/104/3 35/44/3
f 112/46/3 8/123/3 33/47/3
f 121/49/3 39/124/3 40/50/3
f 117/52/3 37/106/3 38/53/3
f 145/55/4 43/121/4 44/56/4
f 141/58/4 41/119/4 42/59/4
f 137/61/4 47/117/4 48/62/4
f 133/64/4 45/115/4 46/65/4
f 129/67/4 51/113/4 52/68/4
f 125/70/4 49/111/4 50/71/4
f 17/73/2 54/125/2 55/74/2
f 19/75/2 58/126/2 59/76/2
f 21/77/2 62/127/2 63/78/2
f 23/79/2 66/128/2 67/80/2
f 25/81/2 70/129/2 71/82/2
f 27/83/2 74/130/2 75/84/2
f 13/85/1 78/131/1 79/86/1
f 15/87/1 82/132/1 83/88/1
f 10/89/1 87/133/1 86/90/1
f 12/91/1 91/134/1 90/92/1
f 1/93/1 94/135/1 95/94/1
f 3/95/1 98/136/1 99/96/1
f 29/97/3 102/137/3 103/98/3
f 31/99/3 106/138/3 107/100/3
f 34/101/3 111/139/3 110/102/3
f 36/104/3 115/140/3 114/105/3
f 37/106/3 118/141/3 119/107/3
f 5/108/3 122/142/3 123/109/3
f 49/111/4 126/143/4 127/112/4
f 51/113/4 130/144/4 131/114/4
f 45/115/4 134/145/4 135/116/4
f 47/117/4 138/146/4 139/118/4
f 41/119/4 142/147/4 143/120/4
f 43/121/4 146/148/4 147/122/4
