# Blender v2.82 (sub 7) OBJ File: 'Prédio.blend'
# www.blender.org
mtllib estagio1.mtl
o Cube.004_Cube.011
v 3.122717 2.236862 9.050825
v 3.122717 2.684088 9.050825
v 3.122717 2.236862 8.828066
v 3.122717 2.684088 8.828066
v 3.132290 2.684088 8.818494
v 3.132290 2.236862 8.818494
v 3.355049 2.236862 8.818494
v 3.355049 2.684088 8.818494
v 3.364622 2.684088 8.828066
v 3.364622 2.236862 8.828066
v 3.364622 2.236862 9.050825
v 3.364622 2.684088 9.050825
v 3.355049 2.684088 9.060397
v 3.355049 2.236862 9.060397
v 3.132290 2.236862 9.060397
v 3.132290 2.684088 9.060397
vt 0.602231 0.772909
vt 0.397769 0.977091
vt 0.397769 0.772909
vt 0.602231 0.272909
vt 0.397769 0.477091
vt 0.397769 0.272909
vt 0.602231 0.522909
vt 0.397769 0.727091
vt 0.397769 0.522909
vt 0.602231 0.022909
vt 0.397769 0.227091
vt 0.397769 0.022909
vt 0.602231 0.977091
vt 0.602231 0.477091
vt 0.602231 0.727091
vt 0.602231 0.227091
vn 0.0000 0.0000 1.0000
vn 0.0000 0.0000 -1.0000
vn 1.0000 0.0000 0.0000
vn -1.0000 0.0000 0.0000
usemtl Vidro.004
s 1
f 13/1/1 15/2/1 14/3/1
f 5/4/2 7/5/2 6/6/2
f 9/7/3 11/8/3 10/9/3
f 2/10/4 3/11/4 1/12/4
f 13/1/1 16/13/1 15/2/1
f 5/4/2 8/14/2 7/5/2
f 9/7/3 12/15/3 11/8/3
f 2/10/4 4/16/4 3/11/4
o Cube.005_Cube.012
v -1.783300 2.236862 3.735789
v -1.783300 2.684088 3.735789
v -1.783300 2.236862 3.513030
v -1.783300 2.684088 3.513030
v -1.773728 2.684088 3.503457
v -1.773728 2.236862 3.503457
v -1.550969 2.236862 3.503457
v -1.550969 2.684088 3.503457
v -1.541396 2.684088 3.513030
v -1.541396 2.236862 3.513030
v -1.541396 2.236862 3.735789
v -1.541396 2.684088 3.735789
v -1.550969 2.684088 3.745362
v -1.550969 2.236862 3.745362
v -1.773728 2.236862 3.745362
v -1.773728 2.684088 3.745362
vt 0.602231 0.772909
vt 0.397769 0.977091
vt 0.397769 0.772909
vt 0.602231 0.272909
vt 0.397769 0.477091
vt 0.397769 0.272909
vt 0.602231 0.522909
vt 0.397769 0.727091
vt 0.397769 0.522909
vt 0.602231 0.022909
vt 0.397769 0.227091
vt 0.397769 0.022909
vt 0.602231 0.977091
vt 0.602231 0.477091
vt 0.602231 0.727091
vt 0.602231 0.227091
vn 0.0000 0.0000 1.0000
vn 0.0000 0.0000 -1.0000
vn 1.0000 0.0000 0.0000
vn -1.0000 0.0000 0.0000
usemtl Vidro.001
s 1
f 29/17/5 31/18/5 30/19/5
f 21/20/6 23/21/6 22/22/6
f 25/23/7 27/24/7 26/25/7
f 18/26/8 19/27/8 17/28/8
f 29/17/5 32/29/5 31/18/5
f 21/20/6 24/30/6 23/21/6
f 25/23/7 28/31/7 27/24/7
f 18/26/8 20/32/8 19/27/8
o Cube.006_Cube.013
v 0.835441 2.236862 3.735789
v 0.835441 2.684088 3.735789
v 0.835441 2.236862 3.513030
v 0.835441 2.684088 3.513030
v 0.845014 2.684088 3.503457
v 0.845014 2.236862 3.503457
v 1.067773 2.236862 3.503457
v 1.067773 2.684088 3.503457
v 1.077346 2.684088 3.513030
v 1.077346 2.236862 3.513030
v 1.077346 2.236862 3.735789
v 1.077346 2.684088 3.735789
v 1.067773 2.684088 3.745362
v 1.067773 2.236862 3.745362
v 0.845014 2.236862 3.745362
v 0.845014 2.684088 3.745362
vt 0.602231 0.772909
vt 0.397769 0.977091
vt 0.397769 0.772909
vt 0.602231 0.272909
vt 0.397769 0.477091
vt 0.397769 0.272909
vt 0.602231 0.522909
vt 0.397769 0.727091
vt 0.397769 0.522909
vt 0.602231 0.022909
vt 0.397769 0.227091
vt 0.397769 0.022909
vt 0.602231 0.977091
vt 0.602231 0.477091
vt 0.602231 0.727091
vt 0.602231 0.227091
vn 0.0000 0.0000 1.0000
vn 0.0000 0.0000 -1.0000
vn 1.0000 0.0000 0.0000
vn -1.0000 0.0000 0.0000
usemtl Vidro.002
s 1
f 45/33/9 47/34/9 46/35/9
f 37/36/10 39/37/10 38/38/10
f 41/39/11 43/40/11 42/41/11
f 34/42/12 35/43/12 33/44/12
f 45/33/9 48/45/9 47/34/9
f 37/36/10 40/46/10 39/37/10
f 41/39/11 44/47/11 43/40/11
f 34/42/12 36/48/12 35/43/12
o Cube.007_Cube.014
v -1.813849 2.236862 8.590079
v -1.813849 2.684088 8.590079
v -1.813849 2.236862 8.367320
v -1.813849 2.684088 8.367320
v -1.804277 2.684088 8.357748
v -1.804277 2.236862 8.357748
v -1.581518 2.236862 8.357748
v -1.581518 2.684088 8.357748
v -1.571945 2.684088 8.367320
v -1.571945 2.236862 8.367320
v -1.571945 2.236862 8.590079
v -1.571945 2.684088 8.590079
v -1.581518 2.684088 8.599651
v -1.581518 2.236862 8.599651
v -1.804277 2.236862 8.599651
v -1.804277 2.684088 8.599651
vt 0.602231 0.772909
vt 0.397769 0.977091
vt 0.397769 0.772909
vt 0.602231 0.272909
vt 0.397769 0.477091
vt 0.397769 0.272909
vt 0.602231 0.522909
vt 0.397769 0.727091
vt 0.397769 0.522909
vt 0.602231 0.022909
vt 0.397769 0.227091
vt 0.397769 0.022909
vt 0.602231 0.977091
vt 0.602231 0.477091
vt 0.602231 0.727091
vt 0.602231 0.227091
vn 0.0000 0.0000 1.0000
vn 0.0000 0.0000 -1.0000
vn 1.0000 0.0000 0.0000
vn -1.0000 0.0000 0.0000
usemtl Vidro.003
s 1
f 61/49/13 63/50/13 62/51/13
f 53/52/14 55/53/14 54/54/14
f 57/55/15 59/56/15 58/57/15
f 50/58/16 51/59/16 49/60/16
f 61/49/13 64/61/13 63/50/13
f 53/52/14 56/62/14 55/53/14
f 57/55/15 60/63/15 59/56/15
f 50/58/16 52/64/16 51/59/16
o 1°ANDAR_Cube.001
v 0.283355 1.554409 1.436020
v 0.283355 2.500325 1.436020
v 0.050115 2.500325 1.436020
v 0.050115 1.554409 1.436020
v -0.051843 1.554409 1.436020
v -0.051843 2.500325 1.436020
v -0.285082 2.500325 1.436020
v -0.285082 1.554409 1.436020
v 1.396437 1.554409 1.436020
v 1.396437 2.500325 1.436020
v 1.163198 2.500325 1.436020
v 1.163198 1.554409 1.436020
v 1.061239 1.554409 1.436020
v 1.061239 2.500325 1.436020
v 0.828000 2.500325 1.436020
v 0.828000 1.554409 1.436020
v 1.612327 1.494318 -1.238306
v 1.612327 2.511160 -1.238306
v 1.612327 2.511160 -1.030990
v 1.612327 1.494318 -1.030990
v 1.612327 1.494318 -0.940364
v 1.612327 2.511160 -0.940364
v 1.612327 2.511160 -0.733048
v 1.612327 1.494318 -0.733048
v 1.612327 1.494318 0.255203
v 1.612327 2.511160 0.255203
v 1.612327 2.511160 0.047887
v 1.612327 1.494318 0.047887
v 1.612327 1.494318 -0.042739
v 1.612327 2.511160 -0.042739
v 1.612327 2.511160 -0.250055
v 1.612327 1.494318 -0.250055
v 1.612327 1.494318 0.732996
v 1.612327 2.511160 0.732996
v 1.612327 2.511160 0.940311
v 1.612327 1.494318 0.940311
v 1.612327 1.494318 1.030937
v 1.612327 2.511160 1.030937
v 1.612327 2.511160 1.238253
v 1.612327 1.494318 1.238253
v -1.612416 1.494318 1.239987
v -1.612416 2.511160 1.239987
v -1.612416 2.511160 1.032671
v -1.612416 1.494318 1.032671
v -1.612416 1.494318 0.942045
v -1.612416 2.511160 0.942045
v -1.612416 2.511160 0.734729
v -1.612416 1.494318 0.734729
v -1.612416 1.494318 -0.253522
v -1.612416 2.511160 -0.253522
v -1.612416 2.511160 -0.046206
v -1.612416 1.494318 -0.046206
v -1.612416 1.494318 0.044420
v -1.612416 2.511160 0.044420
v -1.612416 2.511160 0.251735
v -1.612416 1.494318 0.251735
v -1.612416 1.494318 -0.731315
v -1.612416 2.511160 -0.731315
v -1.612416 2.511160 -0.938631
v -1.612416 1.494318 -0.938631
v -1.612416 1.494318 -1.029256
v -1.612416 2.511160 -1.029256
v -1.612415 2.511160 -1.236573
v -1.612415 1.494318 -1.236573
v -0.287283 1.554408 -1.456605
v -0.287283 2.500325 -1.456605
v -0.054043 2.500325 -1.456605
v -0.054043 1.554408 -1.456605
v 0.047915 1.554408 -1.456605
v 0.047915 2.500325 -1.456605
v 0.281155 2.500325 -1.456605
v 0.281155 1.554408 -1.456605
v -1.400365 1.554408 -1.456605
v -1.400365 2.500325 -1.456605
v -1.167125 2.500325 -1.456605
v -1.167125 1.554408 -1.456605
v -1.065167 1.554408 -1.456605
v -1.065167 2.500325 -1.456605
v -0.831927 2.500325 -1.456605
v -0.831927 1.554408 -1.456605
v 0.826427 1.554408 -1.456605
v 0.826427 2.500325 -1.456605
v 1.059666 2.500325 -1.456605
v 1.059666 1.554408 -1.456605
v 1.161625 1.554408 -1.456605
v 1.161625 2.500325 -1.456605
v 1.394864 2.500325 -1.456605
v 1.394864 1.554408 -1.456605
v 0.826427 1.554408 -1.479208
v 0.283355 2.027367 1.436020
v 0.050115 2.027367 1.436020
v -0.051843 2.027367 1.436020
v -0.285082 2.027367 1.436020
v 1.396437 2.027367 1.436020
v 1.163198 2.027367 1.436020
v 1.061239 2.027367 1.436020
v 0.828000 2.027367 1.436020
v 1.612327 2.002739 0.732996
v 1.612327 2.002739 0.940311
v 1.612327 2.002739 1.030937
v 1.612327 2.002739 1.238253
v 1.612327 2.002739 0.255203
v 1.612327 2.002739 0.047887
v 1.612327 2.002739 -0.042739
v 1.612327 2.002739 -0.250055
v 1.612327 2.002739 -1.238306
v 1.612327 2.002739 -1.030990
v 1.612327 2.002739 -0.940364
v 1.612327 2.002739 -0.733048
v -1.400365 2.027367 -1.456605
v -1.167125 2.027367 -1.456605
v -1.065167 2.027367 -1.456605
v -0.831927 2.027367 -1.456605
v -0.287283 2.027367 -1.456605
v -0.054043 2.027367 -1.456605
v 0.047915 2.027367 -1.456605
v 0.281155 2.027367 -1.456605
v 0.826427 2.027367 -1.456605
v 1.059666 2.027367 -1.456605
v 1.161625 2.027367 -1.456605
v 1.394864 2.027367 -1.456605
v 0.826427 2.027367 -1.479208
v -1.612416 2.002739 -0.731315
v -1.612416 2.002739 -0.938631
v -1.612416 2.002739 -1.029256
v -1.612415 2.002739 -1.236573
v -1.612416 2.002739 -0.253522
v -1.612416 2.002739 -0.046206
v -1.612416 2.002739 0.044420
v -1.612416 2.002739 0.251735
v -1.612416 2.002739 1.239987
v -1.612416 2.002739 1.032671
v -1.612416 2.002739 0.942045
v -1.612416 2.002739 0.734729
vt 0.488165 0.853644
vt 0.398050 0.853644
vt 0.488165 0.853644
vt 0.398050 0.853644
vt 0.488165 0.871169
vt 0.578280 0.853644
vt 0.488165 0.853644
vt 0.488165 0.896356
vt 0.578280 0.878831
vt 0.488165 0.878831
vt 0.488165 0.871169
vt 0.578280 0.853644
vt 0.488165 0.853644
vt 0.488165 0.896356
vt 0.578280 0.878831
vt 0.488165 0.878831
vt 0.488165 0.871169
vt 0.578280 0.853644
vt 0.488165 0.853644
vt 0.488165 0.896356
vt 0.578280 0.878831
vt 0.488165 0.878831
vt 0.488165 0.896356
vt 0.578280 0.878831
vt 0.488165 0.878831
vt 0.488165 0.871169
vt 0.578280 0.853644
vt 0.488165 0.853644
vt 0.488165 0.871169
vt 0.578280 0.853644
vt 0.488165 0.853644
vt 0.488165 0.896356
vt 0.578280 0.878831
vt 0.488165 0.878831
vt 0.488165 0.871169
vt 0.578280 0.853644
vt 0.488165 0.853644
vt 0.488165 0.896356
vt 0.578280 0.878831
vt 0.488165 0.878831
vt 0.488165 0.896356
vt 0.578280 0.878831
vt 0.488165 0.878831
vt 0.488165 0.871169
vt 0.578280 0.853644
vt 0.488165 0.853644
vt 0.488165 0.871169
vt 0.578280 0.853644
vt 0.488165 0.853644
vt 0.488165 0.896356
vt 0.578280 0.878831
vt 0.488165 0.878831
vt 0.488165 0.871169
vt 0.578280 0.853644
vt 0.488165 0.853644
vt 0.488165 0.896356
vt 0.578280 0.878831
vt 0.488165 0.878831
vt 0.488165 0.871169
vt 0.578280 0.853644
vt 0.488165 0.853644
vt 0.488165 0.896356
vt 0.578280 0.878831
vt 0.488165 0.878831
vt 0.488165 0.871169
vt 0.578280 0.853644
vt 0.488165 0.896356
vt 0.578280 0.878831
vt 0.488165 0.878831
vt 0.398050 0.896356
vt 0.398050 0.878831
vt 0.398050 0.871169
vt 0.398050 0.853644
vt 0.398050 0.896356
vt 0.398050 0.878831
vt 0.398050 0.871169
vt 0.398050 0.853644
vt 0.398050 0.896356
vt 0.398050 0.878831
vt 0.398050 0.871169
vt 0.398050 0.853644
vt 0.398050 0.871169
vt 0.398050 0.853644
vt 0.398050 0.896356
vt 0.398050 0.878831
vt 0.398050 0.896356
vt 0.398050 0.878831
vt 0.398050 0.871169
vt 0.398050 0.853644
vt 0.398050 0.896356
vt 0.398050 0.878831
vt 0.398050 0.871169
vt 0.398050 0.853644
vt 0.398050 0.896356
vt 0.398050 0.878831
vt 0.398050 0.871169
vt 0.398050 0.853644
vt 0.398050 0.896356
vt 0.398050 0.878831
vt 0.398050 0.871169
vt 0.398050 0.896356
vt 0.398050 0.878831
vt 0.398050 0.871169
vt 0.398050 0.853644
vt 0.398050 0.871169
vt 0.398050 0.853644
vt 0.398050 0.896356
vt 0.398050 0.878831
vt 0.398050 0.896356
vt 0.398050 0.878831
vt 0.398050 0.871169
vt 0.398050 0.853644
vt 0.578280 0.871170
vt 0.578280 0.896356
vt 0.578280 0.871170
vt 0.578280 0.896356
vt 0.578280 0.871170
vt 0.578280 0.896356
vt 0.578280 0.896356
vt 0.578280 0.871170
vt 0.578280 0.871170
vt 0.578280 0.896356
vt 0.578280 0.871170
vt 0.578280 0.896356
vt 0.578280 0.896356
vt 0.578280 0.871170
vt 0.578280 0.871170
vt 0.578280 0.896356
vt 0.578280 0.871170
vt 0.578280 0.896356
vt 0.578280 0.871170
vt 0.578280 0.896356
vt 0.578280 0.871170
vt 0.578280 0.896356
vn -1.0000 0.0000 0.0000
vn 0.0000 0.0000 -1.0000
vn 1.0000 0.0000 0.0000
vn 0.0000 0.0000 1.0000
usemtl Janelas
s off
f 186/65/17 145/66/17 182/67/17
f 186/65/17 153/68/17 145/66/17
usemtl Vidro
f 155/69/18 66/70/18 154/71/18
f 157/72/18 70/73/18 156/74/18
f 159/75/18 74/76/18 158/77/18
f 161/78/18 78/79/18 160/80/18
f 171/81/17 82/82/17 170/83/17
f 173/84/17 86/85/17 172/86/17
f 166/87/17 91/88/17 167/89/17
f 168/90/17 95/91/17 169/92/17
f 163/93/17 98/94/17 162/95/17
f 165/96/17 102/97/17 164/98/17
f 196/99/19 106/100/19 195/101/19
f 198/102/19 110/103/19 197/104/19
f 191/105/19 115/106/19 192/107/19
f 193/108/19 119/109/19 194/110/19
f 188/111/19 122/112/19 187/113/19
f 190/114/19 126/115/19 189/116/19
f 179/117/20 130/118/20 178/119/20
f 181/120/20 134/121/20 180/122/20
f 175/123/20 138/124/20 174/125/20
f 177/126/20 142/127/20 176/128/20
f 183/129/20 146/130/20 182/67/20
f 185/131/20 150/132/20 184/133/20
f 72/134/18 156/74/18 69/135/18
f 68/136/18 154/71/18 65/137/18
f 80/138/18 160/80/18 77/139/18
f 76/140/18 158/77/18 73/141/18
f 104/142/17 164/98/17 101/143/17
f 100/144/17 162/95/17 97/145/17
f 93/146/17 169/92/17 96/147/17
f 89/148/17 167/89/17 92/149/17
f 88/150/17 172/86/17 85/151/17
f 84/152/17 170/83/17 81/153/17
f 144/154/20 176/128/20 141/155/20
f 140/156/20 174/125/20 137/157/20
f 136/158/20 180/122/20 133/159/20
f 132/160/20 178/119/20 129/161/20
f 152/162/20 184/133/20 149/163/20
f 148/164/20 182/67/20 145/66/20
f 128/165/19 189/116/19 125/166/19
f 124/167/19 187/113/19 121/168/19
f 117/169/19 194/110/19 120/170/19
f 113/171/19 192/107/19 116/172/19
f 112/173/19 197/104/19 109/174/19
f 108/175/19 195/101/19 105/176/19
f 155/69/18 67/177/18 66/70/18
f 157/72/18 71/178/18 70/73/18
f 159/75/18 75/179/18 74/76/18
f 161/78/18 79/180/18 78/79/18
f 171/81/17 83/181/17 82/82/17
f 173/84/17 87/182/17 86/85/17
f 166/87/17 90/183/17 91/88/17
f 168/90/17 94/184/17 95/91/17
f 163/93/17 99/185/17 98/94/17
f 165/96/17 103/186/17 102/97/17
f 196/99/19 107/187/19 106/100/19
f 198/102/19 111/188/19 110/103/19
f 191/105/19 114/189/19 115/106/19
f 193/108/19 118/190/19 119/109/19
f 188/111/19 123/191/19 122/112/19
f 190/114/19 127/192/19 126/115/19
f 179/117/20 131/193/20 130/118/20
f 181/120/20 135/194/20 134/121/20
f 175/123/20 139/195/20 138/124/20
f 177/126/20 143/196/20 142/127/20
f 183/129/20 147/197/20 146/130/20
f 185/131/20 151/198/20 150/132/20
f 72/134/18 157/72/18 156/74/18
f 68/136/18 155/69/18 154/71/18
f 80/138/18 161/78/18 160/80/18
f 76/140/18 159/75/18 158/77/18
f 104/142/17 165/96/17 164/98/17
f 100/144/17 163/93/17 162/95/17
f 93/146/17 168/90/17 169/92/17
f 89/148/17 166/87/17 167/89/17
f 88/150/17 173/84/17 172/86/17
f 84/152/17 171/81/17 170/83/17
f 144/154/20 177/126/20 176/128/20
f 140/156/20 175/123/20 174/125/20
f 136/158/20 181/120/20 180/122/20
f 132/160/20 179/117/20 178/119/20
f 152/162/20 185/131/20 184/133/20
f 148/164/20 183/129/20 182/67/20
f 128/165/19 190/114/19 189/116/19
f 124/167/19 188/111/19 187/113/19
f 117/169/19 193/108/19 194/110/19
f 113/171/19 191/105/19 192/107/19
f 112/173/19 198/102/19 197/104/19
f 108/175/19 196/99/19 195/101/19
